<?xml version="1.0" encoding="UTF-8" standalone="no"?>
<!DOCTYPE svg PUBLIC "-//W3C//DTD SVG 1.1//EN" "http://www.w3.org/Graphics/SVG/1.1/DTD/svg11.dtd">
<svg width="100%" height="100%" viewBox="0 0 201 201" version="1.1" xmlns="http://www.w3.org/2000/svg" xmlns:xlink="http://www.w3.org/1999/xlink" xml:space="preserve" xmlns:serif="http://www.serif.com/" style="fill-rule:evenodd;clip-rule:evenodd;stroke-linejoin:round;stroke-miterlimit:2;">
    <g transform="matrix(1,0,0,1,-127,-16889)">
        <g id="favicon">
            <g id="Footer-bg" serif:id="Footer bg" transform="matrix(0.589971,0,0,0.589971,-2700.009628,16219.748217)">
                <rect x="4793" y="1136" width="339" height="339" style="fill:rgb(255,214,0);"/>
            </g>
            <g transform="matrix(1.204549,0,0,1.204549,-5654.650973,15317.350752)">
                <g transform="matrix(2.455272,0.014588,-0.01482,2.494289,4805.212496,1353.162199)">
                    <path d="M9.453,41.15C9.464,41.145 14.052,40.098 17.655,37.19C21.383,34.234 21.269,32.269 28.533,21.197C34.66,12.036 39.138,6.608 46.535,-0.422C53.981,-7.409 55.766,-13.49 51.696,-16.96C47.929,-20.19 40.019,-21.101 30.901,-13.479C22.991,-6.864 16.795,0.128 10.126,9.614C5.466,16.274 3.744,19.486 3.531,22.842C3.185,28.294 3.836,31.069 4.482,32.277C4.763,31.736 5.054,31.209 5.353,30.694C7.691,26.671 6.431,27.079 8.867,25.862C9.354,25.619 10.073,25.695 10.848,25.98C13.984,20.361 17.924,14.126 22.587,8.253C33.144,-8.142 39.408,-7.811 39.253,-7.707C32.989,-3.492 27.403,2.187 22.587,8.253C19.563,12.948 16.188,19.014 12.51,26.851C14.182,27.987 15.536,29.739 14.763,30.96C9.921,38.605 12.813,31.853 10.567,37.639C9.185,41.2 7.553,44.116 6.296,47.397C16.21,46.775 18.86,41.199 18.874,41.173C13.497,45.73 8.542,44.47 8.531,44.473C19.042,41.924 20.073,36.804 20.059,36.769C19.266,37.862 18.13,38.833 15.742,39.968C12.682,41.418 9.462,41.148 9.453,41.15C9.453,41.15 9.453,41.15 9.453,41.15C9.453,41.15 9.453,41.15 9.453,41.15Z"/>
                </g>
                <g transform="matrix(2.455272,0.014588,-0.01482,2.494289,4805.212496,1353.162199)">
                    <path d="M2.748,36.041C2.511,36.014 0.931,35.693 0.112,31.734C-0.286,29.812 0.271,25.484 0.271,25.484C0.267,25.483 -1.719,28.857 -1.737,33.77C-1.755,38.565 -0.585,41.354 0.491,42.904C1.133,40.452 1.885,38.164 2.748,36.041Z" style="fill:rgb(29,29,27);"/>
                </g>
                <g transform="matrix(2.455272,0.014588,-0.01482,2.494289,4805.212496,1353.162199)">
                    <path d="M4.344,32.544C3.714,32.036 2.754,30.829 2.354,28.072C2.022,25.781 2.185,22.561 2.186,22.561C2.186,22.561 0.824,25.308 0.935,28.782C1.082,33.425 2.33,35.236 2.76,36.011C3.252,34.802 3.78,33.647 4.344,32.544Z" style="fill:rgb(29,29,27);"/>
                </g>
                <g transform="matrix(1.904348,0,0,1.390093,237.617391,-3420.959752)">
                    <path d="M2398.808,3511.38C2399.912,3513.624 2400.944,3514.433 2401.044,3514.513C2400.853,3514.149 2404.836,3499.462 2412.293,3481.121C2411.296,3480.603 2410.369,3480.458 2409.74,3480.89C2406.589,3483.048 2408.217,3482.328 2405.171,3489.522C2404.782,3490.442 2404.403,3491.386 2404.036,3492.353C2404.234,3492.876 2404.432,3493.237 2404.613,3493.462C2404.612,3493.462 2404.297,3493.334 2403.856,3492.832C2403.121,3494.804 2402.431,3496.872 2401.787,3499.036C2401.795,3499.056 2401.803,3499.075 2401.81,3499.095C2401.81,3499.094 2401.797,3499.094 2401.771,3499.09C2400.643,3502.89 2399.655,3506.987 2398.808,3511.38Z"/>
                </g>
                <g transform="matrix(1.904348,0,0,1.390093,237.617391,-3420.959752)">
                    <path d="M2401.771,3499.09C2401.777,3499.072 2401.782,3499.054 2401.787,3499.036C2401.795,3499.056 2401.803,3499.075 2401.81,3499.095C2401.81,3499.094 2401.797,3499.094 2401.771,3499.09Z"/>
                </g>
                <g transform="matrix(1.904348,0,0,1.390093,237.617391,-3420.959752)">
                    <path d="M2403.856,3492.832C2403.916,3492.672 2403.976,3492.512 2404.036,3492.353C2404.234,3492.876 2404.432,3493.237 2404.613,3493.462C2404.612,3493.462 2404.297,3493.334 2403.856,3492.832Z"/>
                </g>
                <g transform="matrix(1.904348,0,0,1.390093,237.617391,-3420.959752)">
                    <path d="M2427.566,3449.436C2421.509,3459.925 2416.379,3471.071 2412.293,3481.121C2404.836,3499.462 2400.853,3514.149 2401.044,3514.513C2400.944,3514.433 2399.912,3513.624 2398.808,3511.38C2397.433,3508.587 2395.945,3503.57 2396.007,3494.967C2396.068,3486.152 2398.655,3480.118 2398.66,3480.12C2398.66,3480.12 2397.908,3487.88 2398.406,3491.333C2399.432,3498.445 2401.466,3499.038 2401.771,3499.09C2401.796,3499.094 2401.81,3499.094 2401.81,3499.095L2401.787,3499.036C2401.239,3497.64 2399.644,3494.377 2399.49,3486.045C2399.374,3479.815 2401.149,3474.903 2401.152,3474.896C2401.15,3474.904 2400.915,3480.674 2401.325,3484.786C2401.819,3489.736 2403.048,3491.912 2403.856,3492.832C2404.297,3493.334 2404.612,3493.462 2404.613,3493.462C2404.432,3493.237 2404.234,3492.876 2404.036,3492.353C2403.213,3490.18 2402.395,3485.193 2402.884,3475.414C2403.184,3469.394 2405.43,3463.649 2411.489,3451.748C2420.162,3434.797 2428.205,3422.316 2438.454,3410.529C2450.269,3396.948 2460.461,3398.666 2465.292,3404.501C2470.513,3410.77 2468.164,3421.663 2458.51,3434.122C2448.918,3446.658 2443.102,3456.351 2435.131,3472.725C2425.68,3492.515 2425.811,3496.042 2420.982,3501.307C2416.314,3506.487 2410.39,3508.319 2410.376,3508.327C2410.388,3508.322 2414.538,3508.84 2418.494,3506.272C2421.582,3504.26 2423.054,3502.53 2424.085,3500.577C2424.103,3500.64 2422.733,3509.816 2409.162,3514.28C2409.176,3514.274 2415.555,3516.587 2422.523,3508.467C2422.505,3508.513 2419.045,3518.49 2406.258,3519.503C2405.251,3519.583 2404.187,3519.607 2403.062,3519.566C2407.058,3505.325 2410.855,3493.135 2414.429,3482.701C2419.232,3468.679 2423.631,3457.829 2427.566,3449.436C2433.822,3438.603 2441.068,3428.471 2449.178,3420.974C2449.378,3420.789 2441.305,3420.13 2427.566,3449.436Z"/>
                </g>
                <g transform="matrix(1.904348,0,0,1.390093,237.617391,-3420.959752)">
                    <path d="M2401.771,3499.09C2401.777,3499.072 2401.782,3499.054 2401.787,3499.036C2401.795,3499.056 2401.803,3499.075 2401.81,3499.095C2401.81,3499.094 2401.797,3499.094 2401.771,3499.09Z"/>
                </g>
                <g transform="matrix(1.904348,0,0,1.390093,237.617391,-3420.959752)">
                    <path d="M2403.856,3492.832C2403.916,3492.672 2403.976,3492.512 2404.036,3492.353C2404.234,3492.876 2404.432,3493.237 2404.613,3493.462C2404.612,3493.462 2404.297,3493.334 2403.856,3492.832Z"/>
                </g>
            </g>
        </g>
    </g>
</svg>
